<svg xmlns="http://www.w3.org/2000/svg" xmlns:xlink="http://www.w3.org/1999/xlink" id="Layer_1" x="0px" y="0px" viewBox="0 0 136.2 46.8" style="enable-background:new 0 0 136.2 46.8;" xml:space="preserve">

<path class="st0" d="M11,21.5c2.1,0,3.8,0.4,4.9,0.8c0.3,0.1,0.5-0.1,0.5-0.4v-0.4c0-1.7-1.4-3.1-4.3-3.1c-2.4,0-4.7,0.6-6.8,1.6  c-0.2,0.1-0.4,0-0.5-0.2l-3-5.4C1.8,14.2,1.8,14,2,13.9c3-1.9,6.7-3.3,11.3-3.3c9.8,0,12.3,5,12.3,11.6v17.2c0,0.2-0.2,0.4-0.4,0.4  h-7.4c-0.2,0-0.3-0.1-0.4-0.3l-0.2-0.7c-0.1-0.3-0.4-0.4-0.7-0.2c-1.4,1.2-3.4,1.9-6,1.9C5,40.5,0,37.1,0,30.9  C0,25.2,4.3,21.5,11,21.5z M12.9,33.5c2.2,0,3.8-1,3.8-2.9c0-2-1.7-3-3.9-3S9,28.8,9,30.6C9,32.5,10.7,33.5,12.9,33.5z" stroke="none" stroke-width="1px" stroke-linecap="butt" stroke-dasharray="none" stroke-miterlimit="4" fill="rgb(255, 255, 255)"></path>
<path class="st0" d="M37.2,39.8H29c-0.2,0-0.4-0.2-0.4-0.4V11.7c0-0.2,0.2-0.4,0.4-0.4h8.2c0.2,0,0.4,0.2,0.4,0.4v27.7  C37.6,39.6,37.5,39.8,37.2,39.8z" stroke="none" stroke-width="1px" stroke-linecap="butt" stroke-dasharray="none" stroke-miterlimit="4" fill="rgb(255, 255, 255)"></path>
<path class="st0" d="M61.7,38.5c0-0.3-0.4-0.5-0.7-0.3c-1.2,1-3.7,2.3-7,2.3c-8.2,0-14-6.2-14-14.9c0-8.8,5.2-15,13.5-15  c3.4,0,5.8,1.3,6.9,2.2c0.3,0.2,0.7,0,0.7-0.3V1c0-0.2,0.2-0.4,0.4-0.4h8.2c0.2,0,0.4,0.2,0.4,0.4v38.4c0,0.2-0.2,0.4-0.4,0.4h-7.6  c-0.2,0-0.4-0.2-0.4-0.4L61.7,38.5L61.7,38.5z M55.2,18.6c-3.7,0-6.1,2.9-6.1,7c0,4.2,2.5,6.9,6.1,6.9c3.9,0,6.1-3.2,6.1-6.9  C61.4,21.1,58.8,18.6,55.2,18.6z" stroke="none" stroke-width="1px" stroke-linecap="butt" stroke-dasharray="none" stroke-miterlimit="4" fill="rgb(255, 255, 255)"></path>
<path class="st0" d="M88.3,10.6c9.2,0,15.6,6.3,15.6,14.9c0,8.6-6.6,15-15.6,15c-9,0-15.5-6.3-15.5-14.9  C72.8,17,79.5,10.6,88.3,10.6z M88.3,32.5c3.8,0,6.6-2.9,6.6-7c0-4.2-2.9-6.9-6.6-6.9c-3.8,0-6.4,2.9-6.4,7  C81.9,29.8,84.6,32.5,88.3,32.5z" stroke="none" stroke-width="1px" stroke-linecap="butt" stroke-dasharray="none" stroke-miterlimit="4" fill="rgb(255, 255, 255)"></path>
<path class="st0" d="M119.1,36.1c0-1.3,0.3-2.4,0.9-3.3c0.2-0.2,0.1-0.5-0.2-0.6c-2.8-0.9-4.6-3.3-4.6-6.7c0-3.8,2.4-6.8,6.7-6.8  c1.9,0,3.8,0.7,5.2,1.8c0.2,0.2,0.5,0.1,0.6-0.2l2.2-6.8c0.1-0.2,0-0.4-0.2-0.5c-2-1.3-4.7-2.4-8.2-2.4c-8.8,0-15.4,6.2-15.4,15  c0,8.2,5.6,14.1,13.8,14.8c0.3,0,0.6-0.4,0.4-0.7C119.6,38.8,119.1,37.5,119.1,36.1z" stroke="none" stroke-width="1px" stroke-linecap="butt" stroke-dasharray="none" stroke-miterlimit="4" fill="rgb(255, 255, 255)"></path>
<circle class="st1" cx="125.4" cy="36" r="3.9" stroke="none" stroke-width="1px" stroke-linecap="butt" stroke-dasharray="none" stroke-miterlimit="4" fill="rgb(241, 89, 43)"></circle>
</svg>